<svg xmlns="http://www.w3.org/2000/svg" viewBox="0 0 512 512">
  <rect width="512" height="512" fill="#0c0c0e"/>
  <circle cx="76.8" cy="256.0" r="6.0" fill="#e5484d"/>
  <circle cx="435.2" cy="256.0" r="6.0" fill="#e5484d"/>
  <path d="M 82.8,256.0 L 83.67,255.85 L 84.53,255.69 L 85.4,255.52 L 86.26,255.35 L 87.13,255.16 L 88.0,254.97 L 88.86,254.76 L 89.73,254.55 L 90.59,254.33 L 91.46,254.11 L 92.33,253.87 L 93.19,253.63 L 94.06,253.38 L 94.92,253.12 L 95.79,252.86 L 96.66,252.6 L 97.52,252.33 L 98.39,252.05 L 99.25,251.77 L 100.12,251.49 L 100.99,251.21 L 101.85,250.93 L 102.72,250.65 L 103.58,250.37 L 104.45,250.09 L 105.32,249.81 L 106.18,249.54 L 107.05,249.28 L 107.91,249.02 L 108.78,248.77 L 109.65,248.53 L 110.51,248.3 L 111.38,248.08 L 112.24,247.87 L 113.11,247.68 L 113.98,247.51 L 114.84,247.35 L 115.71,247.21 L 116.57,247.09 L 117.44,246.99 L 118.31,246.91 L 119.17,246.86 L 120.04,246.84 L 120.9,246.84 L 121.77,246.86 L 122.64,246.92 L 123.5,247.01 L 124.37,247.13 L 125.23,247.28 L 126.1,247.47 L 126.97,247.69 L 127.83,247.94 L 128.7,248.23 L 129.56,248.56 L 130.43,248.92 L 131.3,249.33 L 132.16,249.77 L 133.03,250.25 L 133.89,250.77 L 134.76,251.32 L 135.63,251.92 L 136.49,252.55 L 137.36,253.22 L 138.22,253.93 L 139.09,254.68 L 139.96,255.46 L 140.82,256.28 L 141.69,257.13 L 142.55,258.01 L 143.42,258.92 L 144.29,259.87 L 145.15,260.84 L 146.02,261.84 L 146.88,262.86 L 147.75,263.9 L 148.62,264.97 L 149.48,266.05 L 150.35,267.14 L 151.21,268.24 L 152.08,269.36 L 152.95,270.48 L 153.81,271.6 L 154.68,272.72 L 155.54,273.83 L 156.41,274.94 L 157.28,276.04 L 158.14,277.12 L 159.01,278.18 L 159.87,279.22 L 160.74,280.23 L 161.61,281.22 L 162.47,282.17 L 163.34,283.08 L 164.2,283.94 L 165.07,284.76 L 165.94,285.54 L 166.8,286.25 L 167.67,286.91 L 168.53,287.51 L 169.4,288.05 L 170.27,288.51 L 171.13,288.91 L 172.0,289.23 L 172.86,289.47 L 173.73,289.63 L 174.6,289.71 L 175.46,289.7 L 176.33,289.6 L 177.19,289.41 L 178.06,289.12 L 178.93,288.75 L 179.79,288.27 L 180.66,287.7 L 181.52,287.04 L 182.39,286.27 L 183.26,285.4 L 184.12,284.44 L 184.99,283.38 L 185.85,282.21 L 186.72,280.96 L 187.59,279.6 L 188.45,278.15 L 189.32,276.61 L 190.18,274.98 L 191.05,273.26 L 191.92,271.46 L 192.78,269.57 L 193.65,267.61 L 194.51,265.57 L 195.38,263.47 L 196.25,261.3 L 197.11,259.06 L 197.98,256.77 L 198.84,254.44 L 199.71,252.05 L 200.58,249.63 L 201.44,247.17 L 202.31,244.69 L 203.17,242.19 L 204.04,239.67 L 204.91,237.15 L 205.77,234.62 L 206.64,232.11 L 207.5,229.61 L 208.37,227.12 L 209.24,224.67 L 210.1,222.25 L 210.97,219.88 L 211.83,217.55 L 212.7,215.28 L 213.57,213.08 L 214.43,210.95 L 215.3,208.89 L 216.16,206.93 L 217.03,205.05 L 217.9,203.27 L 218.76,201.59 L 219.63,200.03 L 220.49,198.58 L 221.36,197.25 L 222.23,196.05 L 223.09,194.97 L 223.96,194.04 L 224.82,193.24 L 225.69,192.58 L 226.56,192.08 L 227.42,191.72 L 228.29,191.51 L 229.15,191.46 L 230.02,191.56 L 230.89,191.81 L 231.75,192.23 L 232.62,192.8 L 233.48,193.53 L 234.35,194.41 L 235.22,195.45 L 236.08,196.64 L 236.95,197.98 L 237.81,199.47 L 238.68,201.11 L 239.55,202.89 L 240.41,204.8 L 241.28,206.85 L 242.14,209.03 L 243.01,211.33 L 243.88,213.75 L 244.74,216.28 L 245.61,218.91 L 246.47,221.64 L 247.34,224.47 L 248.21,227.38 L 249.07,230.36 L 249.94,233.41 L 250.8,236.53 L 251.67,239.69 L 252.54,242.9 L 253.4,246.14 L 254.27,249.41 L 255.13,252.7 L 256.0,256.0 L 256.87,259.3 L 257.73,262.59 L 258.6,265.86 L 259.46,269.1 L 260.33,272.31 L 261.2,275.47 L 262.06,278.59 L 262.93,281.64 L 263.79,284.62 L 264.66,287.53 L 265.53,290.36 L 266.39,293.09 L 267.26,295.72 L 268.12,298.25 L 268.99,300.67 L 269.86,302.97 L 270.72,305.15 L 271.59,307.2 L 272.45,309.11 L 273.32,310.89 L 274.19,312.53 L 275.05,314.02 L 275.92,315.36 L 276.78,316.55 L 277.65,317.59 L 278.52,318.47 L 279.38,319.2 L 280.25,319.77 L 281.11,320.19 L 281.98,320.44 L 282.85,320.54 L 283.71,320.49 L 284.58,320.28 L 285.44,319.92 L 286.31,319.42 L 287.18,318.76 L 288.04,317.96 L 288.91,317.03 L 289.77,315.95 L 290.64,314.75 L 291.51,313.42 L 292.37,311.97 L 293.24,310.41 L 294.1,308.73 L 294.97,306.95 L 295.84,305.07 L 296.7,303.11 L 297.57,301.05 L 298.43,298.92 L 299.3,296.72 L 300.17,294.45 L 301.03,292.12 L 301.9,289.75 L 302.76,287.33 L 303.63,284.88 L 304.5,282.39 L 305.36,279.89 L 306.23,277.38 L 307.09,274.85 L 307.96,272.33 L 308.83,269.81 L 309.69,267.31 L 310.56,264.83 L 311.42,262.37 L 312.29,259.95 L 313.16,257.56 L 314.02,255.23 L 314.89,252.94 L 315.75,250.7 L 316.62,248.53 L 317.49,246.43 L 318.35,244.39 L 319.22,242.43 L 320.08,240.54 L 320.95,238.74 L 321.82,237.02 L 322.68,235.39 L 323.55,233.85 L 324.41,232.4 L 325.28,231.04 L 326.15,229.79 L 327.01,228.62 L 327.88,227.56 L 328.74,226.6 L 329.61,225.73 L 330.48,224.96 L 331.34,224.3 L 332.21,223.73 L 333.07,223.25 L 333.94,222.88 L 334.81,222.59 L 335.67,222.4 L 336.54,222.3 L 337.4,222.29 L 338.27,222.37 L 339.14,222.53 L 340.0,222.77 L 340.87,223.09 L 341.73,223.49 L 342.6,223.95 L 343.47,224.49 L 344.33,225.09 L 345.2,225.75 L 346.06,226.46 L 346.93,227.24 L 347.8,228.06 L 348.66,228.92 L 349.53,229.83 L 350.39,230.78 L 351.26,231.77 L 352.13,232.78 L 352.99,233.82 L 353.86,234.88 L 354.72,235.96 L 355.59,237.06 L 356.46,238.17 L 357.32,239.28 L 358.19,240.4 L 359.05,241.52 L 359.92,242.64 L 360.79,243.76 L 361.65,244.86 L 362.52,245.95 L 363.38,247.03 L 364.25,248.1 L 365.12,249.14 L 365.98,250.16 L 366.85,251.16 L 367.71,252.13 L 368.58,253.08 L 369.45,253.99 L 370.31,254.87 L 371.18,255.72 L 372.04,256.54 L 372.91,257.32 L 373.78,258.07 L 374.64,258.78 L 375.51,259.45 L 376.37,260.08 L 377.24,260.68 L 378.11,261.23 L 378.97,261.75 L 379.84,262.23 L 380.7,262.67 L 381.57,263.08 L 382.44,263.44 L 383.3,263.77 L 384.17,264.06 L 385.03,264.31 L 385.9,264.53 L 386.77,264.72 L 387.63,264.87 L 388.5,264.99 L 389.36,265.08 L 390.23,265.14 L 391.1,265.16 L 391.96,265.16 L 392.83,265.14 L 393.69,265.09 L 394.56,265.01 L 395.43,264.91 L 396.29,264.79 L 397.16,264.65 L 398.02,264.49 L 398.89,264.32 L 399.76,264.13 L 400.62,263.92 L 401.49,263.7 L 402.35,263.47 L 403.22,263.23 L 404.09,262.98 L 404.95,262.72 L 405.82,262.46 L 406.68,262.19 L 407.55,261.91 L 408.42,261.63 L 409.28,261.35 L 410.15,261.07 L 411.01,260.79 L 411.88,260.51 L 412.75,260.23 L 413.61,259.95 L 414.48,259.67 L 415.34,259.4 L 416.21,259.14 L 417.08,258.88 L 417.94,258.62 L 418.81,258.37 L 419.67,258.13 L 420.54,257.89 L 421.41,257.67 L 422.27,257.45 L 423.14,257.24 L 424.0,257.03 L 424.87,256.84 L 425.74,256.65 L 426.6,256.48 L 427.47,256.31 L 428.33,256.15 L 429.2,256.0" fill="none" stroke="#e5484d" stroke-width="3.5" stroke-linecap="round" stroke-linejoin="round"/>
</svg>
